<svg xmlns="http://www.w3.org/2000/svg" width="32" height="32" viewBox="0 0 16 16">
    <defs>
        <linearGradient id="gradient" x1="0%" y1="0%" x2="100%" y2="100%">
            <stop offset="0%" style="stop-color:#2563EB"/>
            <stop offset="100%" style="stop-color:#7C3AED"/>
        </linearGradient>
    </defs>
    <!-- code-square icon from Bootstrap Icons -->
    <path fill="url(#gradient)" d="M14 1a1 1 0 0 1 1 1v12a1 1 0 0 1-1 1H2a1 1 0 0 1-1-1V2a1 1 0 0 1 1-1h12zM2 0a2 2 0 0 0-2 2v12a2 2 0 0 0 2 2h12a2 2 0 0 0 2-2V2a2 2 0 0 0-2-2H2z"/>
    <path fill="url(#gradient)" d="M6.854 4.646a.5.5 0 0 1 0 .708L4.207 8l2.647 2.646a.5.5 0 0 1-.708.708l-3-3a.5.5 0 0 1 0-.708l3-3a.5.5 0 0 1 .708 0zm2.292 0a.5.5 0 0 0 0 .708L11.793 8l-2.647 2.646a.5.5 0 0 0 .708.708l3-3a.5.5 0 0 0 0-.708l-3-3a.5.5 0 0 0-.708 0z"/>
</svg> 